Coordinates
version=1
nRows=22
nColumns=24
inDegrees=yes

Units are S.I. units (second, meters, Newtons, ...)
Angles are in degrees.

endheader
time	pelvis_tilt	pelvis_list	pelvis_rotation	pelvis_tx	pelvis_ty	pelvis_tz	hip_flexion_r	hip_adduction_r	hip_rotation_r	knee_angle_r	ankle_angle_r	subtalar_angle_r	mtp_angle_r	hip_flexion_l	hip_adduction_l	hip_rotation_l	knee_angle_l	ankle_angle_l	subtalar_angle_l	mtp_angle_l	lumbar_extension	lumbar_bending	lumbar_rotation
      4.57000000	     -8.26330555	     -9.58633240	      8.11008798	     -1.33996101	     -0.02335431	      0.41885585	     21.04631795	     10.68684539	     -6.95962495	    -16.20584466	     -4.27030359	     -4.58774267	      5.34886900	     18.85815924	     -9.55387561	      6.26016572	    -62.52499438	    -26.72417357	     -8.09667530	     27.43477535	      8.99127028	      8.19565947	     -8.90980961
      4.57500000	     -8.16957044	     -9.37227435	      8.02656926	     -1.33412348	     -0.02244718	      0.41957211	     20.34976444	     10.66480837	     -6.67153688	    -15.95188242	     -3.95433135	     -4.57521348	      5.36371351	     19.54454910	     -9.25950817	      6.26630480	    -63.05299737	    -26.29985646	     -9.25206182	     27.07374251	      8.83273666	      7.92750991	     -8.58504495
      4.58000000	     -8.09733713	     -9.11737923	      7.91293927	     -1.32835931	     -0.02150635	      0.42027123	     19.68061209	     10.59749101	     -6.35953317	    -15.71258333	     -3.70923519	     -4.57080723	      5.36348591	     20.21614104	     -8.91601933	      6.25080845	    -63.45974351	    -25.76332085	    -10.14853209	     26.88401242	      8.68035098	      7.62722930	     -8.22649063
      4.58500000	     -8.06231704	     -8.89410748	      7.85208399	     -1.32261226	     -0.02062497	      0.42088130	     19.04230538	     10.53318372	     -6.07928909	    -15.43523545	     -3.47357077	     -4.57318382	      5.36765679	     20.94032679	     -8.57901778	      6.30886051	    -63.77965828	    -25.09604050	    -10.72702610	     26.92644094	      8.58997200	      7.34944241	     -7.97570882
      4.59000000	     -8.02596942	     -8.51544592	      7.62770214	     -1.31692023	     -0.01964150	      0.42171392	     18.40999230	     10.36285267	     -5.65237436	    -15.23323461	     -3.24565147	     -4.63337336	      5.34892354	     21.55324063	     -8.14681663	      6.13011536	    -63.93913488	    -24.41942267	    -11.19250189	     26.94146348	      8.43933755	      6.92882520	     -7.45938594
      4.59500000	     -8.02287030	     -8.14793467	      7.47427373	     -1.31123622	     -0.01870821	      0.42244346	     17.80149738	     10.16900053	     -5.25654800	    -14.99487365	     -3.00724260	     -4.70286789	      5.33164569	     22.21038102	     -7.69591544	      6.01968673	    -64.00836241	    -23.65631110	    -11.42842600	     27.09474605	      8.34784083	      6.50649932	     -7.07816645
      4.60000000	     -8.03298963	     -7.73865504	      7.21003339	     -1.30561768	     -0.01773571	      0.42326178	     17.21678981	      9.95204742	     -4.75945893	    -14.78611985	     -2.83690392	     -4.74591898	      5.30133131	     22.81421396	     -7.23604820	      5.81243635	    -63.94587566	    -22.71954302	    -11.39470814	     27.38643641	      8.24249666	      6.06543517	     -6.56204645
      4.60500000	     -8.06465201	     -7.30809593	      6.96274788	     -1.30002693	     -0.01679707	      0.42407517	     16.65322370	      9.69954105	     -4.27428419	    -14.56711269	     -2.64857507	     -4.81609266	      5.27054361	     23.42499338	     -6.75152170	      5.60755572	    -63.78292488	    -21.72052949	    -11.17714073	     27.72943261	      8.16674378	      5.59426990	     -6.08713957
      4.61000000	     -8.10935748	     -6.88122642	      6.68820235	     -1.29441508	     -0.01588996	      0.42490701	     16.08824049	      9.44981723	     -3.73888974	    -14.31717525	     -2.46115649	     -4.87051198	      5.24243019	     24.02306222	     -6.29047503	      5.36867123	    -63.52445274	    -20.63469760	    -10.76330247	     28.11467816	      8.11355746	      5.13248229	     -5.60820111
      4.61500000	     -8.16989854	     -6.41106996	      6.40449829	     -1.28891213	     -0.01500070	      0.42572919	     15.57139631	      9.14078070	     -3.26929102	    -14.11167144	     -2.28940800	     -4.92549228	      5.22796837	     24.60916288	     -5.77964382	      5.11350733	    -63.15981194	    -19.55214405	    -10.30694094	     28.47293876	      8.06083221	      4.62886282	     -5.11149953
      4.62000000	     -8.23723098	     -5.95159626	      6.10642479	     -1.28338434	     -0.01414948	      0.42655341	     15.04840682	      8.83795779	     -2.78013276	    -13.87273129	     -2.11777146	     -4.96115469	      5.21460580	     25.17700678	     -5.29413954	      4.83970276	    -62.70019686	    -18.45529982	     -9.76375916	     28.81705837	      8.02819900	      4.14048100	     -4.62057095
      4.62500000	     -8.30304922	     -5.50551445	      5.78859342	     -1.27788129	     -0.01335041	      0.42737667	     14.52367787	      8.54440016	     -2.28426256	    -13.61784935	     -1.94997409	     -4.98194033	      5.20443811	     25.72545548	     -4.83834564	      4.54578700	    -62.15987469	    -17.36486272	     -9.17108055	     29.12178522	      8.00012476	      3.67336376	     -4.12853365
      4.63000000	     -8.36617113	     -5.08165174	      5.46012173	     -1.27237913	     -0.01260897	      0.42817757	     13.99531147	      8.26634652	     -1.79919401	    -13.34620477	     -1.79049494	     -4.98863206	      5.19321460	     26.25251095	     -4.41552741	      4.24303541	    -61.53948460	    -16.30832865	     -8.59418048	     29.36204120	      7.97639282	      3.23860274	     -3.64346920
      4.63500000	     -8.42241696	     -4.67572298	      5.11802213	     -1.26687712	     -0.01193066	      0.42897078	     13.45960230	      8.00199145	     -1.31720500	    -13.06210127	     -1.62829712	     -4.98752047	      5.17954301	     26.75439245	     -4.02685680	      3.92430475	    -60.84431106	    -15.29981602	     -8.04050937	     29.53597809	      7.95330655	      2.83177203	     -3.16004750
      4.64000000	     -8.47128533	     -4.29366199	      4.77464431	     -1.26138168	     -0.01132101	      0.42974463	     12.91660589	      7.75422887	     -0.84760251	    -12.76394882	     -1.46453511	     -4.98081077	      5.15834754	     27.23518501	     -3.67308791	      3.60210059	    -60.07728293	    -14.36403240	     -7.55879608	     29.63366906	      7.93353386	      2.45208918	     -2.69607536
      4.64500000	     -8.50121393	     -3.94824460	      4.40908124	     -1.25587302	     -0.01077927	      0.43050240	     12.35118010	      7.54195861	     -0.35885453	    -12.45139955	     -1.30480785	     -4.96656665	      5.12363827	     27.67897902	     -3.37771959	      3.26365065	    -59.24705749	    -13.47779480	     -7.12769223	     29.65174001	      7.90214520	      2.12364451	     -2.21870965
      4.65000000	     -8.50340644	     -3.65354337	      4.03486691	     -1.25035212	     -0.01031344	      0.43123163	     11.74613287	      7.37839593	      0.16927226	    -12.11062938	     -1.14431278	     -4.95687439	      5.06687167	     28.08708545	     -3.14905463	      2.92697401	    -58.37226077	    -12.65868569	     -6.76350869	     29.55492025	      7.85130301	      1.86382849	     -1.74020656
      4.65500000	     -8.50104657	     -3.36565771	      3.67268302	     -1.24481268	     -0.00990624	      0.43194661	     11.14506040	      7.21299861	      0.65404273	    -11.78079816	     -0.99592573	     -4.97986162	      4.99036234	     28.46834555	     -2.93793915	      2.57337193	    -57.41908372	    -11.93290355	     -6.51853122	     29.35938488	      7.80759522	      1.60508901	     -1.31877834
      4.66000000	     -8.51248625	     -3.08938786	      3.30443584	     -1.23926957	     -0.00958315	      0.43258950	     10.56798649	      7.04472004	      1.07962830	    -11.45377430	     -0.83913660	     -4.98706829	      4.92364628	     28.84494692	     -2.73841049	      2.22379209	    -56.39677252	    -11.34100287	     -6.40069792	     29.16340075	      7.78068574	      1.37475187	     -0.88896791
      4.66500000	     -8.48573461	     -2.85773994	      2.93015221	     -1.23372172	     -0.00931593	      0.43323695	      9.93467041	      6.92075134	      1.58986914	    -11.09729465	     -0.68368832	     -5.00881166	      4.82276822	     29.17087023	     -2.60409622	      1.86830502	    -55.33109569	    -10.80660152	     -6.35182143	     28.86020165	      7.71952980	      1.19134131	     -0.46452504
      4.67000000	     -8.49040015	     -2.61879474	      2.56824735	     -1.22815310	     -0.00912001	      0.43382965	      9.35208762	      6.77373352	      2.01022790	    -10.76438827	     -0.53341119	     -5.03573216	      4.73214851	     29.50032707	     -2.45892216	      1.51771592	    -54.17993855	    -10.35612861	     -6.37277347	     28.56100210	      7.69898667	      1.00334501	     -0.08721406
      4.67500000	     -8.48030260	     -2.39887480	      2.20558090	     -1.22258400	     -0.00898510	      0.43441462	      8.74856720	      6.63913155	      2.46705680	    -10.42035580	     -0.36972386	     -5.06745318	      4.62934054	     29.79840100	     -2.34935659	      1.15244041	    -52.97623142	     -9.95918867	     -6.43311596	     28.20902298	      7.66749883	      0.84059042	      0.29209699
